<svg width="96" height="96" viewBox="0 0 96 96" xmlns="http://www.w3.org/2000/svg" version="1.1" preserveAspectRatio="xMinYMin">
	<defs>
		<style>
			g { display: none	}
			g:target,	g:target>g { display: inline }
			path,	circle { stroke: #fff	}
		</style>
	</defs>
	<g id="minimize">
		<path xmlns="http://www.w3.org/2000/svg" d="M16 38L38 38"/>
		<path xmlns="http://www.w3.org/2000/svg" d="M58 38L80 38"/>
		<path xmlns="http://www.w3.org/2000/svg" d="M16 58L38 58"/>
		<path xmlns="http://www.w3.org/2000/svg" d="M58 58L80 58"/>
		<path xmlns="http://www.w3.org/2000/svg" d="M38 16L38 38"/>
		<path xmlns="http://www.w3.org/2000/svg" d="M38 58L38 80"/>
		<path xmlns="http://www.w3.org/2000/svg" d="M58 16L58 38"/>
		<path xmlns="http://www.w3.org/2000/svg" d="M58 58L58 80"/>
	</g>
	<g id="pause">
		<path xmlns="http://www.w3.org/2000/svg" d="M30 16L30 80"/>
		<path xmlns="http://www.w3.org/2000/svg" d="M64 16L64 80"/>
	</g>
	<g id="play">
		<path xmlns="http://www.w3.org/2000/svg" d="M16 16L80 48"/>
		<path xmlns="http://www.w3.org/2000/svg" d="M16 80L80 48"/>
		<path xmlns="http://www.w3.org/2000/svg" d="M16 16L16 80"/>
	</g>
	<g id="spinner">
		<defs xmlns="http://www.w3.org/2000/svg">
			<clipPath id="a">
				<path d="M0 0L48 0 48 48 96 48 96 96 0 96z"/>
			</clipPath>
		</defs>
		<g xmlns="http://www.w3.org/2000/svg" clip-path="url(#a)">
			<circle cx="48" cy="48" r="32" fill="transparent" stroke-width="1.5"/>
		</g>
	</g>
	<g id="arrow">
		<path xmlns="http://www.w3.org/2000/svg" d="M32 16L64 48"/>
		<path xmlns="http://www.w3.org/2000/svg" d="M32 80L64 48"/>
	</g>
	<g id="close">
		<path xmlns="http://www.w3.org/2000/svg" d="M25 25L71 71"/>
		<path xmlns="http://www.w3.org/2000/svg" d="M25 71L71 25"/>
	</g>
	<g id="maximize">
		<path xmlns="http://www.w3.org/2000/svg" d="M16 16L44 16"/>
		<path xmlns="http://www.w3.org/2000/svg" d="M52 16L80 16"/>
		<path xmlns="http://www.w3.org/2000/svg" d="M16 80L44 80"/>
		<path xmlns="http://www.w3.org/2000/svg" d="M52 80L80 80"/>
		<path xmlns="http://www.w3.org/2000/svg" d="M16 16L16 44"/>
		<path xmlns="http://www.w3.org/2000/svg" d="M16 52L16 80"/>
		<path xmlns="http://www.w3.org/2000/svg" d="M80 16L80 44"/>
		<path xmlns="http://www.w3.org/2000/svg" d="M80 52L80 80"/>
	</g>
</svg>